<svg xmlns="http://www.w3.org/2000/svg"  viewBox="0 0 50 50" width="250px" height="250px"><path d="M 25 2 C 22.849385 2 20.765642 2.2935219 18.785156 2.859375 L 17.951172 3.0957031 L 18.068359 3.9550781 C 18.535285 7.3636388 21.47275 10 25 10 C 28.52725 10 31.464715 7.3636388 31.931641 3.9550781 L 32.048828 3.0957031 L 31.214844 2.859375 C 29.234358 2.2935219 27.150615 2 25 2 z M 25 4 C 26.610927 4 28.134594 4.2921471 29.634766 4.6386719 C 28.948022 6.5740347 27.177171 8 25 8 C 22.822829 8 21.051978 6.5740347 20.365234 4.6386719 C 21.865406 4.2921471 23.389073 4 25 4 z M 14.488281 4.5214844 L 13.728516 4.9492188 C 10.059331 7.0190152 7.0190152 10.059331 4.9492188 13.728516 L 4.5214844 14.488281 L 5.2148438 15.015625 C 7.9571501 17.104446 11.894097 16.887242 14.394531 14.398438 L 14.396484 14.396484 L 14.398438 14.394531 C 16.887241 11.894097 17.104446 7.9571501 15.015625 5.2148438 L 14.488281 4.5214844 z M 35.511719 4.5214844 L 34.984375 5.2148438 C 32.895554 7.9571502 33.112758 11.894097 35.601562 14.394531 L 35.603516 14.396484 L 35.605469 14.398438 C 38.105903 16.887241 42.04285 17.104446 44.785156 15.015625 L 45.478516 14.488281 L 45.050781 13.728516 C 42.980892 10.059238 39.940669 7.0190151 36.271484 4.9492188 L 35.511719 4.5214844 z M 13.880859 7.3222656 C 14.768127 9.1775211 14.520267 11.437382 12.980469 12.984375 C 11.433535 14.520742 9.1759188 14.76736 7.3222656 13.880859 C 8.9984379 11.227767 11.227767 8.9984379 13.880859 7.3222656 z M 36.119141 7.3222656 C 38.772233 8.9984379 41.001562 11.227767 42.677734 13.880859 C 40.824081 14.76736 38.566465 14.520742 37.019531 12.984375 L 37.017578 12.982422 C 37.017578 12.982422 37.015625 12.980469 37.015625 12.980469 C 35.479352 11.433629 35.23264 9.1759188 36.119141 7.3222656 z M 25 12 C 24.083334 12 23.268559 12.379756 22.751953 12.960938 C 22.235347 13.542118 22 14.277778 22 15 C 22 15.722222 22.235347 16.457881 22.751953 17.039062 C 23.268559 17.620244 24.083334 18 25 18 C 25.916666 18 26.731441 17.620244 27.248047 17.039062 C 27.764653 16.457881 28 15.722222 28 15 C 28 14.277778 27.764653 13.542119 27.248047 12.960938 C 26.731441 12.379755 25.916666 12 25 12 z M 25 14 C 25.416666 14 25.601893 14.120244 25.751953 14.289062 C 25.902014 14.457882 26 14.722222 26 15 C 26 15.277778 25.90201 15.542119 25.751953 15.710938 C 25.601893 15.879755 25.416666 16 25 16 C 24.583334 16 24.398107 15.879756 24.248047 15.710938 C 24.097986 15.542118 24 15.277778 24 15 C 24 14.722222 24.097986 14.457881 24.248047 14.289062 C 24.398107 14.120245 24.583334 14 25 14 z M 17.929688 14.929688 C 17.01302 14.929688 16.198247 15.30749 15.681641 15.888672 C 15.165035 16.469854 14.929688 17.207465 14.929688 17.929688 C 14.929687 18.651909 15.165035 19.387568 15.681641 19.96875 C 16.198247 20.549932 17.01302 20.929688 17.929688 20.929688 C 18.846353 20.929688 19.659175 20.549932 20.175781 19.96875 C 20.692387 19.387568 20.929687 18.65191 20.929688 17.929688 C 20.929688 17.207465 20.692387 16.469854 20.175781 15.888672 C 19.659175 15.30749 18.846354 14.929688 17.929688 14.929688 z M 32.070312 14.929688 C 31.153647 14.929688 30.340825 15.30749 29.824219 15.888672 C 29.307613 16.469854 29.070313 17.207465 29.070312 17.929688 C 29.070314 18.651909 29.307613 19.387568 29.824219 19.96875 C 30.340825 20.549932 31.153647 20.929688 32.070312 20.929688 C 32.986979 20.929688 33.801753 20.549932 34.318359 19.96875 C 34.834965 19.387568 35.070312 18.65191 35.070312 17.929688 C 35.070312 17.207465 34.834965 16.469854 34.318359 15.888672 C 33.801753 15.30749 32.986979 14.929688 32.070312 14.929688 z M 17.929688 16.929688 C 18.346353 16.929688 18.53158 17.049932 18.681641 17.21875 C 18.831701 17.387568 18.929686 17.65191 18.929688 17.929688 C 18.929688 18.207465 18.831698 18.469854 18.681641 18.638672 C 18.53158 18.80749 18.346353 18.929688 17.929688 18.929688 C 17.51302 18.929688 17.325842 18.80749 17.175781 18.638672 C 17.025721 18.469854 16.929686 18.207465 16.929688 17.929688 C 16.929688 17.651909 17.025718 17.387568 17.175781 17.21875 C 17.325842 17.049932 17.51302 16.929688 17.929688 16.929688 z M 32.070312 16.929688 C 32.486979 16.929688 32.674158 17.049932 32.824219 17.21875 C 32.974279 17.387568 33.070312 17.65191 33.070312 17.929688 C 33.070312 18.207465 32.974282 18.469854 32.824219 18.638672 C 32.674158 18.80749 32.486979 18.929688 32.070312 18.929688 C 31.653647 18.929688 31.46842 18.80749 31.318359 18.638672 C 31.168299 18.469854 31.070312 18.207465 31.070312 17.929688 C 31.070312 17.651909 31.168302 17.387568 31.318359 17.21875 C 31.46842 17.049932 31.653647 16.929688 32.070312 16.929688 z M 3.0957031 17.951172 L 2.859375 18.785156 C 2.2935219 20.765642 2 22.849385 2 25 C 2 27.150615 2.2935219 29.234358 2.859375 31.214844 L 3.0957031 32.048828 L 3.9550781 31.931641 C 7.3636388 31.464715 10 28.52725 10 25 C 10 21.47275 7.3636388 18.535285 3.9550781 18.068359 L 3.0957031 17.951172 z M 46.904297 17.951172 L 46.044922 18.068359 C 42.636361 18.535285 40 21.47275 40 25 C 40 28.52725 42.636361 31.464715 46.044922 31.931641 L 46.904297 32.048828 L 47.140625 31.214844 C 47.706478 29.234358 48 27.150615 48 25 C 48 22.849385 47.706478 20.765642 47.140625 18.785156 L 46.904297 17.951172 z M 4.6386719 20.365234 C 6.5740347 21.051978 8 22.822829 8 25 C 8 27.177171 6.5740347 28.948022 4.6386719 29.634766 C 4.2921471 28.134594 4 26.610927 4 25 C 4 23.389073 4.2921471 21.865406 4.6386719 20.365234 z M 45.361328 20.365234 C 45.707853 21.865406 46 23.389073 46 25 C 46 26.610927 45.707853 28.134594 45.361328 29.634766 C 43.425965 28.948022 42 27.177171 42 25 C 42 22.822829 43.425965 21.051978 45.361328 20.365234 z M 15 22 C 14.083334 22 13.268559 22.379756 12.751953 22.960938 C 12.235347 23.542119 12 24.277778 12 25 C 12 25.722222 12.235347 26.457882 12.751953 27.039062 C 13.268559 27.620244 14.083334 28 15 28 C 15.916666 28 16.731441 27.620244 17.248047 27.039062 C 17.764653 26.457881 18 25.722222 18 25 C 18 24.277778 17.764653 23.542118 17.248047 22.960938 C 16.731441 22.379756 15.916666 22 15 22 z M 35 22 C 34.083334 22 33.268559 22.379756 32.751953 22.960938 C 32.235347 23.542119 32 24.277778 32 25 C 32 25.722222 32.235347 26.457882 32.751953 27.039062 C 33.268559 27.620244 34.083334 28 35 28 C 35.916666 28 36.731441 27.620244 37.248047 27.039062 C 37.764653 26.457881 38 25.722222 38 25 C 38 24.277778 37.764653 23.542118 37.248047 22.960938 C 36.731441 22.379756 35.916666 22 35 22 z M 15 24 C 15.416666 24 15.601893 24.120244 15.751953 24.289062 C 15.902014 24.457881 16 24.722222 16 25 C 16 25.277778 15.90201 25.542118 15.751953 25.710938 C 15.601893 25.879756 15.416666 26 15 26 C 14.583334 26 14.398107 25.879756 14.248047 25.710938 C 14.097986 25.542119 14 25.277778 14 25 C 14 24.722222 14.097986 24.457882 14.248047 24.289062 C 14.398107 24.120244 14.583334 24 15 24 z M 35 24 C 35.416666 24 35.601893 24.120244 35.751953 24.289062 C 35.902014 24.457881 36 24.722222 36 25 C 36 25.277778 35.90201 25.542118 35.751953 25.710938 C 35.601893 25.879756 35.416666 26 35 26 C 34.583334 26 34.398107 25.879756 34.248047 25.710938 C 34.097986 25.542119 34 25.277778 34 25 C 34 24.722222 34.097986 24.457882 34.248047 24.289062 C 34.398107 24.120244 34.583334 24 35 24 z M 17.929688 29.070312 C 17.01302 29.070312 16.198247 29.450068 15.681641 30.03125 C 15.165035 30.612432 14.929688 31.34809 14.929688 32.070312 C 14.929687 32.792535 15.165035 33.530146 15.681641 34.111328 C 16.198247 34.69251 17.01302 35.070312 17.929688 35.070312 C 18.846353 35.070312 19.659175 34.69251 20.175781 34.111328 C 20.692387 33.530146 20.929687 32.792535 20.929688 32.070312 C 20.929688 31.348091 20.692387 30.612432 20.175781 30.03125 C 19.659175 29.450068 18.846354 29.070312 17.929688 29.070312 z M 32.070312 29.070312 C 31.153647 29.070312 30.340825 29.450068 29.824219 30.03125 C 29.307613 30.612432 29.070313 31.34809 29.070312 32.070312 C 29.070314 32.792535 29.307613 33.530146 29.824219 34.111328 C 30.340825 34.69251 31.153647 35.070312 32.070312 35.070312 C 32.986979 35.070312 33.801753 34.69251 34.318359 34.111328 C 34.834965 33.530146 35.070312 32.792535 35.070312 32.070312 C 35.070312 31.348091 34.834965 30.612432 34.318359 30.03125 C 33.801753 29.450068 32.986979 29.070312 32.070312 29.070312 z M 17.929688 31.070312 C 18.346353 31.070312 18.53158 31.19251 18.681641 31.361328 C 18.831701 31.530146 18.929686 31.792535 18.929688 32.070312 C 18.929688 32.34809 18.831698 32.612432 18.681641 32.78125 C 18.53158 32.950068 18.346353 33.070312 17.929688 33.070312 C 17.51302 33.070312 17.325842 32.950068 17.175781 32.78125 C 17.025721 32.612432 16.929686 32.34809 16.929688 32.070312 C 16.929688 31.792535 17.025718 31.530146 17.175781 31.361328 C 17.325842 31.19251 17.51302 31.070313 17.929688 31.070312 z M 32.070312 31.070312 C 32.486979 31.070312 32.674158 31.19251 32.824219 31.361328 C 32.974279 31.530146 33.070312 31.792535 33.070312 32.070312 C 33.070312 32.34809 32.974282 32.612432 32.824219 32.78125 C 32.674158 32.950068 32.486979 33.070312 32.070312 33.070312 C 31.653647 33.070312 31.46842 32.950068 31.318359 32.78125 C 31.168299 32.612432 31.070312 32.34809 31.070312 32.070312 C 31.070312 31.792535 31.168302 31.530146 31.318359 31.361328 C 31.46842 31.19251 31.653647 31.070313 32.070312 31.070312 z M 25 32 C 24.083334 32 23.268559 32.379756 22.751953 32.960938 C 22.235347 33.542119 22 34.277778 22 35 C 22 35.722222 22.235347 36.457881 22.751953 37.039062 C 23.268559 37.620244 24.083334 38 25 38 C 25.916666 38 26.731441 37.620244 27.248047 37.039062 C 27.764653 36.457881 28 35.722222 28 35 C 28 34.277778 27.764653 33.542119 27.248047 32.960938 C 26.731441 32.379756 25.916666 32 25 32 z M 9.2792969 33.564453 C 7.8425076 33.598507 6.4146028 34.070516 5.2148438 34.984375 L 4.5214844 35.511719 L 4.9492188 36.271484 C 7.0190152 39.940669 10.059331 42.980985 13.728516 45.050781 L 14.488281 45.478516 L 15.015625 44.785156 C 17.104446 42.04285 16.887241 38.105903 14.398438 35.605469 L 14.396484 35.603516 L 14.394531 35.601562 C 13.144407 34.357254 11.534538 33.680363 9.8945312 33.576172 C 9.6895304 33.563148 9.4845525 33.559588 9.2792969 33.564453 z M 40.720703 33.564453 C 40.515448 33.559588 40.31047 33.563148 40.105469 33.576172 C 38.465462 33.680363 36.855686 34.35716 35.605469 35.601562 L 35.603516 35.603516 L 35.601562 35.605469 C 33.112758 38.105903 32.895554 42.04285 34.984375 44.785156 L 35.511719 45.478516 L 36.271484 45.050781 C 39.940669 42.980985 42.980985 39.940669 45.050781 36.271484 L 45.478516 35.511719 L 44.785156 34.984375 C 43.585397 34.070516 42.157492 33.598507 40.720703 33.564453 z M 25 34 C 25.416666 34 25.601893 34.120244 25.751953 34.289062 C 25.902014 34.457881 26 34.722222 26 35 C 26 35.277778 25.90201 35.542119 25.751953 35.710938 C 25.601893 35.879756 25.416666 36 25 36 C 24.583334 36 24.398107 35.879756 24.248047 35.710938 C 24.097986 35.542119 24 35.277778 24 35 C 24 34.722222 24.097986 34.457881 24.248047 34.289062 C 24.398107 34.120244 24.583334 34 25 34 z M 9.7636719 35.566406 C 10.933665 35.639716 12.084592 36.123933 12.984375 37.019531 C 14.520742 38.566465 14.76736 40.824081 13.880859 42.677734 C 11.227767 41.001562 8.9984379 38.772233 7.3222656 36.119141 C 8.0984427 35.747938 8.9221001 35.513675 9.7636719 35.566406 z M 40.236328 35.566406 C 41.0779 35.513676 41.901557 35.747938 42.677734 36.119141 C 41.001562 38.772233 38.772233 41.001562 36.119141 42.677734 C 35.23264 40.824081 35.479258 38.566465 37.015625 37.019531 L 37.017578 37.017578 C 37.017578 37.017578 37.019531 37.015625 37.019531 37.015625 C 37.91872 36.122579 39.068072 35.639606 40.236328 35.566406 z M 25 40 C 21.47275 40 18.535285 42.636361 18.068359 46.044922 L 17.951172 46.904297 L 18.785156 47.140625 C 20.765642 47.706478 22.849385 48 25 48 C 27.150615 48 29.234358 47.706478 31.214844 47.140625 L 32.048828 46.904297 L 31.931641 46.044922 C 31.464715 42.636361 28.52725 40 25 40 z M 25 42 C 27.177171 42 28.948022 43.425965 29.634766 45.361328 C 28.134594 45.707853 26.610927 46 25 46 C 23.389073 46 21.865406 45.707853 20.365234 45.361328 C 21.051978 43.425965 22.822829 42 25 42 z"/></svg>